<svg height="512pt" viewBox="0 0 512 512.001" width="512pt" xmlns="http://www.w3.org/2000/svg"><g fill-rule="evenodd"><path d="m289.226562 174.382812c21.9375 8.9375 39.457032 26.460938 48.398438 48.390626l41.375 8.363281 123 24.863281-123 24.863281-41.378906 8.363281c-8.9375 21.929688-26.460938 39.453126-48.394532 48.390626l-8.363281 41.382812-24.863281 123-24.863281-123-8.359375-41.378906c-21.933594-8.9375-39.457032-26.460938-48.394532-48.394532l-41.378906-8.363281-123.003906-24.863281 123-24.863281 41.378906-8.363281c8.941406-21.933594 26.460938-39.453126 48.394532-48.390626l8.363281-41.382812 24.863281-123 24.863281 123zm0 0" fill="#fec96b"/><path d="m256 296.128906c22.101562 0 40.128906-18.027344 40.128906-40.128906s-18.027344-40.128906-40.128906-40.128906-40.125 18.027344-40.125 40.128906 18.023438 40.128906 40.125 40.128906zm0 0" fill="#ff5d5d"/><path d="m503.980469 246.199219-159.304688-32.203125c-9.679687-20.363282-26.308593-36.988282-46.671875-46.667969l-32.203125-159.308594c-.941406-4.664062-5.042969-8.019531-9.800781-8.019531s-8.859375 3.355469-9.800781 8.019531l-32.203125 159.308594c-20.359375 9.679687-36.992188 26.308594-46.671875 46.667969l-159.304688 32.203125c-4.664062.941406-8.019531 5.042969-8.019531 9.800781s3.355469 8.859375 8.019531 9.800781l159.308594 32.203125c9.675781 20.359375 26.308594 36.992188 46.671875 46.671875l32.199219 159.304688c.941406 4.667969 5.042969 8.019531 9.800781 8.019531s8.859375-3.351562 9.800781-8.019531l32.203125-159.304688c20.363282-9.679687 36.992188-26.308593 46.671875-46.671875l159.308594-32.199218c4.664063-.945313 8.015625-5.042969 8.015625-9.804688 0-4.757812-3.351562-8.859375-8.019531-9.800781zm-168.339844 33.226562c-3.28125.664063-6.015625 2.925781-7.277344 6.023438-7.898437 19.375-23.539062 35.015625-42.910156 42.910156-3.101563 1.261719-5.363281 3.996094-6.027344 7.277344l-23.425781 115.890625-23.421875-115.886719c-.664063-3.285156-2.925781-6.015625-6.027344-7.28125-19.375-7.894531-35.015625-23.535156-42.910156-42.90625-1.261719-3.101563-3.996094-5.363281-7.277344-6.027344l-115.890625-23.425781 115.886719-23.425781c3.28125-.664063 6.015625-2.925781 7.28125-6.023438 7.894531-19.375 23.535156-35.015625 42.90625-42.910156 3.101563-1.261719 5.363281-3.996094 6.027344-7.277344l23.425781-115.890625 23.425781 115.890625c.664063 3.28125 2.925781 6.015625 6.027344 7.277344 19.371094 7.894531 35.011719 23.535156 42.910156 42.910156 1.261719 3.097657 3.996094 5.359375 7.277344 6.023438l115.886719 23.425781zm0 0"/><path d="m256 205.871094c-27.640625 0-50.125 22.488281-50.125 50.128906s22.484375 50.128906 50.125 50.128906 50.128906-22.488281 50.128906-50.128906-22.488281-50.128906-50.128906-50.128906zm0 80.257812c-16.609375 0-30.125-13.515625-30.125-30.128906s13.515625-30.128906 30.125-30.128906c16.613281 0 30.128906 13.515625 30.128906 30.128906s-13.515625 30.128906-30.128906 30.128906zm0 0"/><path d="m97.59375 305.472656c-1.644531-5.269531-7.253906-8.210937-12.523438-6.566406-5.273437 1.644531-8.214843 7.25-6.570312 12.523438 4.699219 15.066406 11.339844 29.515624 19.734375 42.949218 1.894531 3.035156 5.15625 4.703125 8.488281 4.703125 1.8125 0 3.644532-.492187 5.289063-1.519531 4.6875-2.929688 6.109375-9.097656 3.183593-13.78125-7.488281-11.984375-13.410156-24.875-17.601562-38.308594zm0 0"/><path d="m85.070312 213.09375c.992188.308594 1.996094.457031 2.980469.457031 4.257813 0 8.207031-2.742187 9.542969-7.023437 16.21875-51.988282 56.941406-92.710938 108.933594-108.929688 5.273437-1.648437 8.214844-7.253906 6.570312-12.527344-1.644531-5.269531-7.253906-8.214843-12.523437-6.566406-58.265625 18.175782-103.898438 63.808594-122.070313 122.066406-1.648437 5.273438 1.292969 10.878907 6.566406 12.523438zm0 0"/><path d="m414.410156 206.527344c1.335938 4.28125 5.28125 7.023437 9.542969 7.023437.984375 0 1.988281-.148437 2.980469-.457031 5.269531-1.644531 8.210937-7.25 6.566406-12.523438-4.699219-15.066406-11.339844-29.515624-19.734375-42.949218-2.925781-4.683594-9.09375-6.109375-13.777344-3.183594-4.683593 2.929688-6.109375 9.097656-3.183593 13.78125 7.488281 11.984375 13.414062 24.875 17.605468 38.308594zm0 0"/><path d="m305.472656 97.597656c13.4375 4.191406 26.328125 10.113282 38.308594 17.601563 1.648438 1.027343 3.480469 1.519531 5.289062 1.519531 3.335938 0 6.59375-1.664062 8.492188-4.703125 2.925781-4.683594 1.5-10.851563-3.183594-13.777344-13.429687-8.394531-27.878906-15.035156-42.949218-19.734375-5.269532-1.644531-10.878907 1.296875-12.523438 6.570313-1.644531 5.269531 1.296875 10.878906 6.566406 12.523437zm0 0"/><path d="m206.527344 414.402344c-13.433594-4.1875-26.324219-10.113282-38.308594-17.601563-4.683594-2.925781-10.851562-1.5-13.777344 3.183594-2.929687 4.683594-1.503906 10.851563 3.179688 13.777344 13.433594 8.394531 27.886718 15.035156 42.953125 19.734375.988281.308594 1.992187.457031 2.980469.457031 4.257812 0 8.207031-2.746094 9.542968-7.023437 1.644532-5.273438-1.296875-10.878907-6.570312-12.527344zm0 0"/><path d="m426.933594 298.90625c-5.273438-1.648438-10.878906 1.292969-12.523438 6.566406-16.21875 51.988282-56.945312 92.710938-108.9375 108.929688-5.273437 1.648437-8.210937 7.253906-6.566406 12.527344 1.335938 4.28125 5.28125 7.023437 9.542969 7.023437.984375 0 1.988281-.148437 2.980469-.457031 58.261718-18.179688 103.894531-63.8125 122.070312-122.066406 1.644531-5.273438-1.292969-10.878907-6.566406-12.523438zm0 0"/><path d="m131.617188 370.382812c-5.507813 0-10 4.492188-10 10 0 5.507813 4.492187 10 10 10 5.507812 0 10-4.492187 10-10 0-5.507812-4.492188-10-10-10zm0 0"/><path d="m380.382812 141.617188c5.507813 0 10-4.492188 10-10 0-5.507813-4.492187-10-10-10-5.507812 0-10 4.492187-10 10 0 5.507812 4.492188 10 10 10zm0 0"/></g></svg>