<svg xmlns="http://www.w3.org/2000/svg" height="511pt" version="1.1" viewBox="1 -45 511.99999 511" width="511pt">
<g id="surface1">
<path d="M 26 76.5 L 382 76.5 L 382 44.5 L 26 44.5 C 17.199219 44.5 10 51.699219 10 60.5 C 10 69.300781 17.199219 76.5 26 76.5 Z M 26 76.5 " style=" stroke:none;fill-rule:evenodd;fill:rgb(67.058824%,78.039216%,100%);fill-opacity:1;" />
<path d="M 382 44.5 L 382 80.5 C 382 97 395.5 110.5 412 110.5 C 428.5 110.5 442 97 442 80.5 L 442 40.5 C 442 24 428.5 10.5 412 10.5 C 395.5 10.5 382 24 382 40.5 Z M 382 44.5 " style=" stroke:none;fill-rule:evenodd;fill:rgb(94.901961%,28.627451%,40%);fill-opacity:1;" />
<path d="M 442 44.5 L 442 76.5 L 486 76.5 C 494.800781 76.5 502 69.300781 502 60.5 C 502 51.699219 494.800781 44.5 486 44.5 Z M 442 44.5 " style=" stroke:none;fill-rule:evenodd;fill:rgb(67.058824%,78.039216%,100%);fill-opacity:1;" />
<path d="M 486 194.5 L 190 194.5 L 190 226.5 L 486 226.5 C 494.800781 226.5 502 219.300781 502 210.5 C 502 201.699219 494.800781 194.5 486 194.5 Z M 486 194.5 " style=" stroke:none;fill-rule:evenodd;fill:rgb(67.058824%,78.039216%,100%);fill-opacity:1;" />
<path d="M 190 226.5 L 190 190.5 C 190 174 176.5 160.5 160 160.5 C 143.5 160.5 130 174 130 190.5 L 130 230.5 C 130 247 143.5 260.5 160 260.5 C 176.5 260.5 190 247 190 230.5 Z M 190 226.5 " style=" stroke:none;fill-rule:evenodd;fill:rgb(94.901961%,28.627451%,40%);fill-opacity:1;" />
<path d="M 130 226.5 L 130 194.5 L 26 194.5 C 17.199219 194.5 10 201.699219 10 210.5 C 10 219.300781 17.199219 226.5 26 226.5 Z M 130 226.5 " style=" stroke:none;fill-rule:evenodd;fill:rgb(67.058824%,78.039216%,100%);fill-opacity:1;" />
<path d="M 286 344.5 L 26 344.5 C 17.199219 344.5 10 351.699219 10 360.5 C 10 369.296875 17.199219 376.5 26 376.5 L 286 376.5 Z M 286 344.5 " style=" stroke:none;fill-rule:evenodd;fill:rgb(67.058824%,78.039216%,100%);fill-opacity:1;" />
<path d="M 286 344.5 L 286 380.5 C 286 397 299.5 410.5 316 410.5 C 332.5 410.5 346 397 346 380.5 L 346 340.5 C 346 324 332.5 310.5 316 310.5 C 299.5 310.5 286 324 286 340.5 Z M 286 344.5 " style=" stroke:none;fill-rule:evenodd;fill:rgb(94.901961%,28.627451%,40%);fill-opacity:1;" />
<path d="M 346 344.5 L 346 376.5 L 486 376.5 C 494.800781 376.5 502 369.300781 502 360.5 C 502 351.699219 494.800781 344.5 486 344.5 Z M 346 344.5 " style=" stroke:none;fill-rule:evenodd;fill:rgb(67.058824%,78.039216%,100%);fill-opacity:1;" />
<path d="M 486 184.5 L 199.550781 184.5 C 196.644531 165.28125 180.015625 150.5 160 150.5 C 139.984375 150.5 123.355469 165.28125 120.449219 184.5 L 26 184.5 C 11.664062 184.5 0 196.164062 0 210.5 C 0 224.835938 11.664062 236.5 26 236.5 L 120.449219 236.5 C 123.355469 255.71875 139.984375 270.5 160 270.5 C 180.015625 270.5 196.644531 255.71875 199.550781 236.5 L 486 236.5 C 500.335938 236.5 512 224.835938 512 210.5 C 512 196.164062 500.335938 184.5 486 184.5 Z M 20 210.5 C 20 207.246094 22.746094 204.5 26 204.5 L 120 204.5 L 120 216.5 L 26 216.5 C 22.746094 216.5 20 213.75 20 210.5 Z M 180 230.5 C 180 241.527344 171.027344 250.5 160 250.5 C 148.972656 250.5 140 241.527344 140 230.5 L 140 190.5 C 140 179.472656 148.972656 170.5 160 170.5 C 171.027344 170.5 180 179.472656 180 190.5 Z M 486 216.5 L 200 216.5 L 200 204.5 L 486 204.5 C 489.253906 204.5 492 207.246094 492 210.5 C 492 213.75 489.253906 216.5 486 216.5 Z M 486 216.5 " style=" stroke:none;fill-rule:nonzero;fill:rgb(0%,0%,0%);fill-opacity:1;" />
<path d="M 85.765625 54.5 L 86.035156 54.5 C 91.558594 54.5 96.035156 50.023438 96.035156 44.5 C 96.035156 38.976562 91.558594 34.5 86.035156 34.5 L 85.765625 34.5 C 80.242188 34.5 75.765625 38.976562 75.765625 44.5 C 75.765625 50.023438 80.242188 54.5 85.765625 54.5 Z M 85.765625 54.5 " style=" stroke:none;fill-rule:nonzero;fill:rgb(0%,0%,0%);fill-opacity:1;" />
<path d="M 26 86.5 L 372.453125 86.5 C 375.355469 105.71875 391.984375 120.5 412 120.5 C 432.015625 120.5 448.644531 105.71875 451.550781 86.5 L 486 86.5 C 500.335938 86.5 512 74.835938 512 60.5 C 512 46.164062 500.335938 34.5 486 34.5 L 451.550781 34.5 C 448.644531 15.28125 432.015625 0.5 412 0.5 C 391.984375 0.5 375.355469 15.28125 372.453125 34.5 L 126 34.5 C 120.476562 34.5 116 38.976562 116 44.5 C 116 50.023438 120.476562 54.5 126 54.5 L 372 54.5 L 372 66.5 L 26 66.5 C 22.746094 66.5 20 63.75 20 60.5 C 20 57.246094 22.746094 54.5 26 54.5 L 57.035156 54.5 C 62.558594 54.5 67.035156 50.023438 67.035156 44.5 C 67.035156 38.976562 62.558594 34.5 57.035156 34.5 L 26 34.5 C 11.664062 34.5 0 46.164062 0 60.5 C 0 74.835938 11.664062 86.5 26 86.5 Z M 492 60.5 C 492 63.75 489.253906 66.5 486 66.5 L 452 66.5 L 452 54.5 L 486 54.5 C 489.253906 54.5 492 57.246094 492 60.5 Z M 392 40.5 C 392 29.472656 400.972656 20.5 412 20.5 C 423.027344 20.5 432 29.472656 432 40.5 L 432 80.5 C 432 91.527344 423.027344 100.5 412 100.5 C 400.972656 100.5 392 91.527344 392 80.5 Z M 392 40.5 " style=" stroke:none;fill-rule:nonzero;fill:rgb(0%,0%,0%);fill-opacity:1;" />
<path d="M 486 334.5 L 454.964844 334.5 C 449.445312 334.5 444.964844 338.976562 444.964844 344.5 C 444.964844 350.023438 449.445312 354.5 454.964844 354.5 L 486 354.5 C 489.253906 354.5 492 357.246094 492 360.5 C 492 363.75 489.253906 366.5 486 366.5 L 356 366.5 L 356 354.5 L 386 354.5 C 391.523438 354.5 396 350.023438 396 344.5 C 396 338.976562 391.523438 334.5 386 334.5 L 355.546875 334.5 C 352.644531 315.277344 336.015625 300.5 316 300.5 C 295.984375 300.5 279.355469 315.277344 276.449219 334.5 L 26 334.5 C 11.664062 334.5 0 346.164062 0 360.5 C 0 374.835938 11.664062 386.5 26 386.5 L 276.449219 386.5 C 279.355469 405.71875 295.984375 420.5 316 420.5 C 336.015625 420.5 352.644531 405.71875 355.546875 386.5 L 486 386.5 C 500.335938 386.5 512 374.835938 512 360.5 C 512 346.164062 500.335938 334.5 486 334.5 Z M 20 360.5 C 20 357.246094 22.746094 354.5 26 354.5 L 276 354.5 L 276 366.5 L 26 366.5 C 22.746094 366.5 20 363.75 20 360.5 Z M 336 380.5 C 336 391.527344 327.027344 400.5 316 400.5 C 304.972656 400.5 296 391.527344 296 380.5 L 296 340.5 C 296 329.472656 304.972656 320.5 316 320.5 C 327.027344 320.5 336 329.472656 336 340.5 Z M 336 380.5 " style=" stroke:none;fill-rule:nonzero;fill:rgb(0%,0%,0%);fill-opacity:1;" />
<path d="M 426.234375 354.5 C 431.757812 354.5 436.234375 350.023438 436.234375 344.5 C 436.234375 338.976562 431.757812 334.5 426.234375 334.5 L 425.964844 334.5 C 420.441406 334.5 415.964844 338.976562 415.964844 344.5 C 415.964844 350.023438 420.441406 354.5 425.964844 354.5 Z M 426.234375 354.5 " style=" stroke:none;fill-rule:nonzero;fill:rgb(0%,0%,0%);fill-opacity:1;" />
</g>
</svg>