<?xml version="1.0" encoding="iso-8859-1"?>
<!-- Generator: Adobe Illustrator 19.0.0, SVG Export Plug-In . SVG Version: 6.00 Build 0)  -->
<svg version="1.1" id="Capa_1" xmlns="http://www.w3.org/2000/svg" xmlns:xlink="http://www.w3.org/1999/xlink" x="0px" y="0px"
	 viewBox="0 0 512 512" style="enable-background:new 0 0 512 512;" xml:space="preserve">
<path style="fill:#F9A462;" d="M430,10H110.5C94.76,10,82,22.76,82,38.5v394.057h348V10z"/>
<path style="fill:#F7CD95;" d="M82,432.557V473.5c0,15.74,12.76,28.5,28.5,28.5H430v-69.443H82z"/>
<rect x="122.48" y="58.712" style="fill:#B75548;" width="267.03" height="124.49"/>
<path d="M389.515,193.206h-267.03c-5.522,0-10-4.478-10-10V58.712c0-5.522,4.478-10,10-10h267.029c5.523,0,10,4.478,10,10v124.494
	C399.515,188.729,395.037,193.206,389.515,193.206z M132.485,173.206h247.029V68.712H132.485V173.206z"/>
<path d="M199.153,88.059c-5.159,0-7.637,0.66-11.415,7.294l-7.894,13.797l-7.893-13.795c-3.779-6.636-6.257-7.296-11.418-7.296
	c-3.625,0-7.858,2.058-7.858,7.858v52.154c0,3.622,4.073,5.272,7.858,5.272s7.859-1.65,7.859-5.272v-28.745l6.05,11.082
	c1.061,2.034,2.87,3.109,5.229,3.109c2.389,0,4.276-1.057,5.459-3.057l6.165-10.533v28.144c0,3.622,4.073,5.272,7.857,5.272
	c3.785,0,7.859-1.65,7.859-5.272V95.916C207.012,90.123,202.952,88.059,199.153,88.059z"/>
<path d="M251.734,102.05c3.054,0,5.186-2.912,5.186-7.082c0-3.327-1.623-6.909-5.186-6.909h-30.689
	c-3.369,0-6.996,1.649-6.996,5.271v54.74c0,3.622,3.626,5.272,6.996,5.272h30.689c3.563,0,5.186-3.582,5.186-6.909
	c0-4.17-2.132-7.083-5.186-7.083h-21.969v-12.386h11.796c3.405,0,5.186-3.129,5.186-6.22c0-3.705-2.181-6.393-5.186-6.393h-11.796
	v-12.3L251.734,102.05L251.734,102.05z"/>
<path d="M298.971,88.059c-4.773,0-7.858,2.036-7.858,5.186v24.702l-11.825-22.555c-3.489-6.701-5.766-7.334-10.92-7.334
	c-3.911,0-7.857,1.631-7.857,5.271v54.74c0,3.622,4.073,5.272,7.857,5.272c3.785,0,7.859-1.65,7.859-5.272v-24.887l14.25,25.949
	c2.028,3.733,5.605,4.211,8.494,4.211c3.785,0,7.859-1.65,7.859-5.272V93.245C306.829,90.094,303.745,88.059,298.971,88.059z"/>
<path d="M351.466,88.059c-4.774,0-7.859,2.036-7.859,5.186v39.137c0,5.036-2.336,7.485-7.141,7.485
	c-4.806,0-7.142-2.449-7.142-7.485V93.245c0-3.582-3.947-5.186-7.857-5.186c-4.774,0-7.859,2.036-7.859,5.186v39.137
	c0,13.85,8.118,21.478,22.858,21.478s22.858-7.628,22.858-21.478V93.245C359.324,89.662,355.378,88.059,351.466,88.059z"/>
<path style="fill:#C8FEFF;" d="M176.105,224.321v80.655c0,34.31,27.814,62.124,62.124,62.124h35.543
	c34.31,0,62.124-27.814,62.124-62.124v-80.655L176.105,224.321L176.105,224.321z"/>
<path style="fill:#EF5352;" d="M277.124,259.743c-11.835,0-19.346,13.197-21.123,13.197c-1.556,0-8.76-13.197-21.128-13.197
	c-12.029,0-21.854,9.92-22.496,21.938c-0.364,6.785,1.825,11.949,4.909,16.628c6.159,9.346,33.089,31.847,38.755,31.847
	c5.784,0,32.473-22.418,38.674-31.847c3.091-4.701,5.271-9.844,4.908-16.628C298.98,269.664,289.156,259.743,277.124,259.743z"/>
<path d="M256.041,340.156c-2.526,0-7.784,0-25.567-14.714c-3.758-3.109-16.415-13.857-21.538-21.631
	c-3.08-4.673-7.111-12.109-6.544-22.666c0.939-17.607,15.207-31.402,32.481-31.402c9.395,0,16.509,4.762,21.262,9.132
	c4.777-4.374,11.794-9.132,20.989-9.132c17.274,0,31.543,13.795,32.484,31.404c0.565,10.537-3.461,17.978-6.538,22.656
	c-4.104,6.239-13.776,15.279-21.461,21.659C263.911,340.156,258.596,340.156,256.041,340.156z M257.882,320.408L257.882,320.408
	L257.882,320.408z M234.873,269.743c-6.531,0-12.143,5.595-12.511,12.472c-0.198,3.696,0.75,6.764,3.273,10.591
	c4.442,6.742,22.996,22.464,30.425,26.711c7.367-4.209,25.836-19.915,30.3-26.702c2.558-3.891,3.477-6.862,3.277-10.598
	c-0.368-6.879-5.981-12.474-12.514-12.474c-4.132,0-8.401,4.658-10.953,7.441c-2.473,2.697-5.274,5.755-10.17,5.755
	c-4.934,0-7.681-3.128-9.888-5.641C243.631,274.473,239.477,269.743,234.873,269.743z"/>
<path d="M430,0H110.5C89.271,0,72,17.271,72,38.5v435c0,21.228,17.271,38.5,38.5,38.5H430c5.522,0,10-4.478,10-10V10
	C440,4.477,435.522,0,430,0z M92,38.5c0-10.201,8.299-18.5,18.5-18.5H420v402.558H92V38.5z M110.5,492
	c-10.201,0-18.5-8.299-18.5-18.5v-30.942h328V457H171.822c-5.522,0-10,4.478-10,10s4.478,10,10,10H420v15H110.5z"/>
<path d="M369.02,228.694h-23.124v-4.373c0-5.523-4.478-10-10-10H176.105c-5.523,0-10,4.477-10,10v80.654
	c0,20.474,8.576,38.983,22.323,52.124h-45.606c-5.522,0-10,4.477-10,10c0,5.522,4.478,10,10,10h196.376c5.522,0,10-4.478,10-10
	c0-5.523-4.478-10-10-10h-15.626c7.865-7.518,14.038-16.793,17.88-27.189c17.426-2.98,37.568-15.317,37.568-56.39v-34.826
	C379.02,233.172,374.542,228.694,369.02,228.694z M238.229,357.1c-28.741,0-52.124-23.383-52.124-52.124v-70.654h139.791v70.654
	c0,28.741-23.383,52.124-52.124,52.124H238.229z M359.02,273.521c0,21.46-6.026,30.325-13.174,34.162
	c0.033-0.898,0.05-1.801,0.05-2.707v-56.281h13.124L359.02,273.521L359.02,273.521z"/>
<circle cx="378.2" cy="367.1" r="10"/>
<circle cx="132.82" cy="467" r="9.998"/>
<g>
</g>
<g>
</g>
<g>
</g>
<g>
</g>
<g>
</g>
<g>
</g>
<g>
</g>
<g>
</g>
<g>
</g>
<g>
</g>
<g>
</g>
<g>
</g>
<g>
</g>
<g>
</g>
<g>
</g>
</svg>
