<svg height="512pt" viewBox="-68 0 511 512" width="512pt" xmlns="http://www.w3.org/2000/svg"><g fill-rule="evenodd"><path d="m10.5 10h237.6875l116.351562 116.351562v375.648438h-354.039062zm0 0" fill="#ffdda0"/><path d="m248.1875 10v116.351562h116.351562zm0 0" fill="#fec96b"/><path d="m224.761719 340.71875 52.667969 52.667969zm-52.667969-127.152344c41.136719 0 74.484375 33.347656 74.484375 74.484375 0 20.566407-8.339844 39.1875-21.816406 52.667969-13.480469 13.476562-32.097657 21.8125-52.667969 21.8125-41.132812 0-74.480469-33.347656-74.480469-74.480469 0-41.136719 33.347657-74.484375 74.480469-74.484375zm0 0" fill="#67e4dc"/><path d="m374.523438 126.011719c-.003907-.109375-.007813-.222657-.015626-.328125-.03125-.433594-.078124-.859375-.160156-1.28125-.085937-.425782-.207031-.839844-.34375-1.25-.035156-.101563-.070312-.203125-.109375-.304688-.144531-.386718-.304687-.765625-.496093-1.128906-.011719-.023438-.019532-.042969-.03125-.066406-.203126-.378906-.441407-.742188-.691407-1.097656-.0625-.089844-.128906-.175782-.195312-.265626-.269531-.351562-.554688-.691406-.867188-1.007812l-116.351562-116.351562c-.316407-.316407-.660157-.601563-1.007813-.867188-.089844-.066406-.179687-.132812-.269531-.199219-.351563-.25-.714844-.484375-1.097656-.6875-.023438-.015625-.046875-.023437-.066407-.035156-.363281-.1875-.742187-.351563-1.125-.492187-.101562-.039063-.207031-.078126-.308593-.113282-.410157-.136718-.820313-.257812-1.246094-.339844-.003906-.003906-.011719-.003906-.015625-.003906-.414062-.082031-.839844-.128906-1.261719-.1562498-.113281-.0078124-.226562-.015625-.339843-.0195312-.113282-.0039062-.222657-.015625-.335938-.015625h-237.6875c-5.523438 0-10 4.476562-10 10v381.996094c0 5.523437 4.476562 10 10 10s10-4.476563 10-10v-371.996094h217.6875v106.351562c0 5.523438 4.476562 10 10 10h106.351562v20c0 5.523438 4.480469 10 10 10 5.523438 0 10-4.476562 10-10v-30c0-.113281-.011718-.226562-.015624-.339843zm-116.335938-91.867188 82.210938 82.207031h-82.210938zm0 0"/><path d="m364.539062 226.351562c-5.519531 0-10 4.476563-10 10v255.648438h-334.039062v-20.003906c0-5.519532-4.476562-10-10-10s-10 4.480468-10 10v30.003906c0 5.523438 4.476562 10 10 10h354.039062c5.523438 0 10-4.476562 10-10v-265.648438c0-5.523437-4.476562-10-10-10zm0 0"/><path d="m172.09375 203.566406c-46.582031 0-84.480469 37.898438-84.480469 84.484375 0 46.582031 37.898438 84.480469 84.480469 84.480469 19.199219 0 37.421875-6.359375 52.257812-18.085938l46.007813 46.007813c1.953125 1.953125 4.511719 2.929687 7.070313 2.929687 2.558593 0 5.117187-.976562 7.070312-2.929687 3.90625-3.902344 3.90625-10.234375 0-14.140625l-46.007812-46.007812c11.726562-14.835938 18.085937-33.058594 18.085937-52.253907 0-46.582031-37.898437-84.484375-84.484375-84.484375zm45.597656 130.082032c-12.179687 12.175781-28.371094 18.882812-45.597656 18.882812-35.554688 0-64.480469-28.925781-64.480469-64.480469 0-35.554687 28.925781-64.480469 64.480469-64.480469s64.480469 28.925782 64.480469 64.480469c.003906 17.222657-6.703125 33.417969-18.882813 45.597657zm0 0"/><path d="m10.5 441.996094c5.507812 0 10-4.488282 10-10 0-5.507813-4.492188-10-10-10s-10 4.492187-10 10c0 5.511718 4.492188 10 10 10zm0 0"/><path d="m364.539062 186.351562c-5.507812 0-10 4.492188-10 10 0 5.507813 4.492188 10 10 10 5.507813 0 10-4.492187 10-10 0-5.507812-4.492187-10-10-10zm0 0"/></g></svg>