<svg height="512pt" viewBox="-103 0 512 512" width="512pt" xmlns="http://www.w3.org/2000/svg"><path d="m128.796875 454.472656h-89.066406c-9.601563 0-17.382813 7.785156-17.382813 17.382813v30.144531h260.472656v-30.144531c0-9.597657-7.78125-17.382813-17.378906-17.382813h-89.070312" fill="#00dba8"/><path d="m130.796875 436.710938v19.351562c0 12.03125 9.753906 21.785156 21.785156 21.785156s21.785157-9.753906 21.785157-21.785156v-19.351562" fill="#ffe2c5"/><path d="m267.203125 202.671875c-21.117187-72.476563-114.621094-155.226563-114.621094-155.226563s-92.609375 82.710938-114.402343 155.144532" fill="#00ad85"/><path d="m152.847656 229.195312h-.527344c-40.082031.03125-80.148437 7.191407-116.371093 21.464844-1.695313 9.539063-1.367188 20.128906-.667969 31.433594 18.492188 6.6875 37.988281 10.175781 60.664062 10.175781 36.582032 0 69.585938-9.914062 92.984376-25.820312 19.332031 17.886719 46.269531 29.226562 78.363281 29.226562.332031 0 .664062 0 .996093-.003906.46875-2.792969.84375-5.539063 1.128907-8.230469 1.4375-13.519531 1.90625-25.753906-.160157-36.761718-36.234374-14.289063-76.316406-21.457032-116.410156-21.484376zm0 0" fill="#feec76"/><path d="m291.679688 269.976562c-.53125-2.398437-2.472657-4.234374-4.898438-4.628906-.324219-.050781-.644531-.078125-.964844-.078125-2.085937 0-4.050781 1.089844-5.148437 2.914063-3.5 5.820312-7.136719 10.34375-10.726563 13.855468-.15625 1.777344-.332031 3.578126-.523437 5.398438-.285157 2.695312-.660157 5.441406-1.128907 8.234375-.332031.003906-.664062.003906-.996093.003906-32.09375 0-59.03125-11.339843-78.363281-29.226562-23.402344 15.90625-56.40625 25.820312-92.984376 25.820312-22.675781 0-42.171874-3.492187-60.667968-10.175781-3.605469-3.523438-7.261719-8.0625-10.777344-13.910156-1.097656-1.828125-3.0625-2.914063-5.144531-2.914063-.324219 0-.644531.027344-.96875.078125-2.425781.394532-4.367188 2.226563-4.898438 4.628906-.476562 2.152344-11.472656 53.027344 8.433594 79.597657 5.25 7.011719 12.097656 11.71875 20.429687 14.074219 4.011719 13.710937 14.023438 33.746093 27.644532 39.417968 0 0 21.867187 12.957032 39.453125 22.976563 13.144531 7.488281 28.003906 11.441406 43.132812 11.441406 15.128907 0 29.988281-3.953125 43.132813-11.441406 17.582031-10.019531 39.453125-22.976563 39.453125-22.976563 13.625-5.675781 23.636719-25.707031 27.648437-39.417968 8.328125-2.355469 15.175782-7.066407 20.425782-14.074219 19.910156-26.566407 8.914062-77.445313 8.4375-79.597657zm0 0" fill="#ffe2c5"/><path d="m152.847656 181.992188h-.527344c-39.261718.027343-78.507812 6.898437-114.140624 20.597656-3.820313 12.699218-6.0625 35.980468-6.148438 49.648437 37.238281-15.324219 78.757812-23.011719 120.289062-23.042969h.527344c41.53125.03125 83.050782 7.71875 120.289063 23.042969-.085938-13.636719-2.238281-36.890625-5.933594-49.566406-35.691406-13.753906-75.015625-20.652344-114.355469-20.679687zm0 0" fill="#ff6b6b"/><path d="m201.941406 195.628906c-.648437 0-1.308594-.058594-1.949218-.1875-.640626-.132812-1.269532-.320312-1.867188-.570312-.609375-.25-1.191406-.5625-1.730469-.921875-.550781-.371094-1.0625-.789063-1.519531-1.25-.460938-.460938-.882812-.96875-1.242188-1.519531-.359374-.539063-.667968-1.121094-.917968-1.71875-.25-.609376-.449219-1.242188-.570313-1.871094-.128906-.648438-.199219-1.308594-.199219-1.960938 0-.648437.070313-1.308594.199219-1.949218.121094-.640626.320313-1.269532.570313-1.871094.25-.609375.558594-1.1875.917968-1.730469.359376-.546875.78125-1.058594 1.242188-1.519531.457031-.457032.96875-.878906 1.519531-1.238282.539063-.359374 1.121094-.671874 1.730469-.921874.597656-.25 1.226562-.4375 1.867188-.570313 3.242187-.65625 6.699218.410156 9.023437 2.730469.457031.460937.878906.972656 1.238281 1.519531.359375.542969.667969 1.121094.917969 1.730469.25.601562.453125 1.230468.570313 1.871094.132812.640624.199218 1.300781.199218 1.949218 0 .652344-.066406 1.3125-.199218 1.960938-.117188.628906-.320313 1.261718-.570313 1.871094-.25.597656-.558594 1.179687-.917969 1.71875-.359375.550781-.78125 1.058593-1.238281 1.519531-1.863281 1.871093-4.441406 2.929687-7.074219 2.929687zm0 0"/><path d="m206.824219 348.101562c-7.046875 0-14.09375-2.679687-19.460938-8.046874-3.90625-3.902344-3.90625-10.234376 0-14.140626s10.238281-3.90625 14.144531 0c2.929688 2.933594 7.699219 2.933594 10.632813 0 3.90625-3.902343 10.238281-3.90625 14.140625 0 3.90625 3.90625 3.90625 10.238282 0 14.140626-5.363281 5.367187-12.410156 8.046874-19.457031 8.046874zm0 0"/><path d="m98.34375 348.101562c-7.046875 0-14.09375-2.679687-19.457031-8.046874-3.90625-3.902344-3.90625-10.234376 0-14.140626 3.902343-3.90625 10.234375-3.90625 14.140625 0 2.933594 2.929688 7.703125 2.929688 10.632812 0 3.90625-3.90625 10.238282-3.90625 14.144532 0 3.902343 3.902344 3.902343 10.234376 0 14.140626-5.367188 5.367187-12.414063 8.046874-19.460938 8.046874zm0 0"/><path d="m179.695312 37.109375c0 14.972656-12.140624 27.109375-27.113281 27.109375-14.96875 0-27.109375-12.136719-27.109375-27.109375s12.140625-27.109375 27.109375-27.109375c14.972657 0 27.113281 12.136719 27.113281 27.109375zm0 0" fill="#f74659"/><path d="m152.582031 403.949219c-7.410156 0-14.378906-2.886719-19.621093-8.125-3.90625-3.90625-3.90625-10.238281 0-14.144531 3.90625-3.902344 10.238281-3.902344 14.144531 0 1.460937 1.464843 3.410156 2.269531 5.476562 2.269531 2.070313 0 4.019531-.804688 5.480469-2.269531 3.910156-3.90625 10.238281-3.902344 14.144531 0 3.90625 3.90625 3.90625 10.238281 0 14.140624-5.242187 5.242188-12.210937 8.128907-19.625 8.128907zm0 0"/><path d="m265.441406 444.472656h-81.070312v-2.351562c5.628906-1.949219 11.089844-4.417969 16.296875-7.386719 15.914062-9.066406 35.542969-20.660156 39.050781-22.734375 14.804688-6.59375 25.554688-24.871094 31.078125-40.527344 8.140625-3.296875 15.007813-8.632812 20.453125-15.902344 22.242188-29.691406 11.492188-81.902343 10.191406-87.757812-1.425781-6.433594-6.550781-11.277344-13.070312-12.335938-.84375-.136718-1.703125-.207031-2.554688-.207031-1.105468 0-2.199218.117188-3.265625.34375.390625-1.089843.59375-2.25.585938-3.4375-.078125-12.96875-2.097657-37.769531-6.332031-52.300781-15.046876-51.644531-63.664063-106.828125-95.726563-139.015625 5.375-6.441406 8.617187-14.722656 8.617187-23.75-.003906-20.460937-16.648437-37.109375-37.113281-37.109375-20.460937 0-37.109375 16.648438-37.109375 37.109375 0 9.070313 3.273438 17.386719 8.695313 23.839844-31.808594 32.175781-80.066407 87.246093-95.5625 138.757812-.003907.015625-.007813.03125-.015625.042969-4.386719 14.613281-6.476563 39.445312-6.558594 52.425781-.007812 1.191407.199219 2.359375.589844 3.453125-1.886719-.402344-3.867188-.46875-5.839844-.148437-6.5 1.054687-11.625 5.894531-13.058594 12.335937-1.296875 5.855469-12.027344 58.089844 10.195313 87.753906 5.445312 7.269532 12.308593 12.601563 20.453125 15.902344 5.523437 15.65625 16.277344 33.933594 31.078125 40.523438 3.511719 2.078125 23.136719 13.667968 39.046875 22.734375 5.210937 2.96875 10.671875 5.441406 16.300781 7.390625v2.351562h-81.066406c-15.101563 0-27.382813 12.285156-27.382813 27.382813v30.144531c0 5.523438 4.476563 10 10 10h260.472656c5.523438 0 10-4.476562 10-10v-30.144531c0-15.097657-12.285156-27.382813-27.378906-27.382813zm-124.644531 2.289063c3.90625.480469 7.839844.722656 11.789063.722656 3.945312 0 7.878906-.242187 11.78125-.722656v9.300781c0 6.496094-5.285157 11.785156-11.785157 11.785156-6.496093 0-11.785156-5.289062-11.785156-11.785156zm11.785156-372.542969c4.078125 0 8.003907-.660156 11.679688-1.882812 22.875 22.746093 65.933593 69.105468 86.167969 113.984374-2.785157-.851562-5.589844-1.664062-8.402344-2.441406-5.328125-1.464844-10.828125 1.664063-12.296875 6.988282-1.464844 5.324218 1.664062 10.828124 6.988281 12.292968 7.484375 2.0625 14.886719 4.421875 22.0625 7.035156 1.640625 7.539063 2.933594 17.757813 3.671875 27.277344-34.066406-11.960937-71.632813-18.25-109.605469-18.277344h-.535156c-37.953125.027344-75.511719 6.316407-109.574219 18.269532.765625-9.539063 2.109375-19.78125 3.8125-27.332032 32.644531-11.855468 69.09375-18.117187 105.769531-18.144531h.519532c2.207031 0 4.441406.027344 6.644531.074219h.214844c5.425781 0 9.878906-4.339844 9.996093-9.789062.113282-5.519532-4.265624-10.089844-9.789062-10.207032-2.339844-.050781-4.710938-.078125-7.058594-.078125h-.535156c-33.320312.023438-66.511719 4.910157-97.191406 14.222657 20.496094-44.820313 63.183594-91.074219 85.898437-113.839844 3.640625 1.199218 7.527344 1.847656 11.5625 1.847656zm-107.25 183.566406c32.996094-12.15625 69.761719-18.5625 106.988281-18.589844h.519532c37.226562.027344 73.984375 6.433594 106.972656 18.582032v25.21875c-.074219.808594-.15625 1.621094-.242188 2.445312-24.859374-1.542968-46.808593-10.5625-63.847656-26.332031-3.417968-3.160156-8.566406-3.546875-12.414062-.929687-22.523438 15.308593-54.367188 24.089843-87.363282 24.089843-18.417968 0-34.683593-2.34375-50.613281-7.335937zm107.25-237.785156c9.4375 0 17.109375 7.675781 17.109375 17.109375s-7.671875 17.109375-17.109375 17.109375c-9.433593 0-17.109375-7.675781-17.109375-17.109375s7.675782-17.109375 17.109375-17.109375zm-77.488281 374.464844c-.402344-.238282-.820312-.445313-1.25-.625-9.050781-3.773438-18.035156-19.816406-21.894531-33-.96875-3.304688-3.566407-5.875-6.878907-6.8125-6.246093-1.765625-11.203124-5.183594-15.144531-10.449219-12.46875-16.640625-10.398437-46.558594-8.292969-61.855469 1.199219 1.558594 2.433594 3.039063 3.699219 4.445313v21.667969c0 5.523437 4.480469 10 10 10 5.523438 0 10-4.476563 10-10v-12.070313c15.976563 4.371094 32.65625 6.507813 50.613281 6.507813 34.421876 0 66.785157-8.265626 92.085938-23.394532 19.730469 15.878906 44.75 25.15625 71.78125 26.601563v2.394531c0 5.523438 4.476562 10 10 10s10-4.476562 10-10v-21.6875c1.273438-1.410156 2.515625-2.902344 3.726562-4.46875 2.109376 15.292969 4.183594 45.203125-8.296874 61.859375-3.945313 5.265625-8.898438 8.683594-15.144532 10.449219-3.3125.933594-5.910156 3.507812-6.878906 6.8125-3.859375 13.183594-12.84375 29.230468-21.894531 33-.429688.179687-.851563.390625-1.25.628906-.21875.128906-22.003907 13.027344-39.308594 22.886719-11.628906 6.628906-24.832031 10.128906-38.183594 10.128906-13.347656 0-26.550781-3.5-38.183593-10.128906-17.304688-9.859375-39.085938-22.757813-39.304688-22.890625zm197.726562 97.535156h-240.472656v-20.144531c0-4.070313 3.3125-7.382813 7.382813-7.382813h82.199219c3.695312 13.457032 16.039062 23.375 30.652343 23.375 14.617188 0 26.960938-9.914062 30.65625-23.375h82.203125c4.066406 0 7.378906 3.3125 7.378906 7.382813zm0 0"/></svg>